#N canvas 0 0 1350 664 10;
#X obj 714 500 cnv 15 254 126 empty empty empty 20 12 0 14 #000000
#404040 0;
#X floatatom 81 202 5 0 0 0 - - -, f 5;
#X obj 213 259 ==;
#X floatatom 213 281 5 0 0 0 - - -, f 5;
#X msg 213 333 48;
#X floatatom 15 81 5 0 0 0 - - -, f 5;
#X obj 263 259 ==;
#X msg 263 333 49;
#X obj 213 304 moses 1;
#X floatatom 263 281 5 0 0 0 - - -, f 5;
#X obj 263 304 moses 1;
#X obj 313 259 ==;
#X floatatom 313 281 5 0 0 0 - - -, f 5;
#X obj 363 259 ==;
#X obj 313 304 moses 1;
#X floatatom 363 281 5 0 0 0 - - -, f 5;
#X obj 363 304 moses 1;
#X obj 413 259 ==;
#X floatatom 413 281 5 0 0 0 - - -, f 5;
#X obj 463 259 ==;
#X obj 413 304 moses 1;
#X floatatom 463 281 5 0 0 0 - - -, f 5;
#X obj 463 304 moses 1;
#X obj 513 259 ==;
#X floatatom 513 281 5 0 0 0 - - -, f 5;
#X obj 563 259 ==;
#X obj 513 304 moses 1;
#X floatatom 563 281 5 0 0 0 - - -, f 5;
#X obj 563 304 moses 1;
#X obj 613 259 ==;
#X floatatom 613 281 5 0 0 0 - - -, f 5;
#X obj 663 259 ==;
#X obj 613 304 moses 1;
#X floatatom 663 281 5 0 0 0 - - -, f 5;
#X obj 663 304 moses 1;
#X obj 713 259 ==;
#X floatatom 713 281 5 0 0 0 - - -, f 5;
#X obj 763 259 ==;
#X obj 713 304 moses 1;
#X floatatom 763 281 5 0 0 0 - - -, f 5;
#X obj 763 304 moses 1;
#X msg 313 333 50;
#X msg 363 333 51;
#X msg 413 333 52;
#X msg 464 333 53;
#X msg 513 333 54;
#X msg 563 333 55;
#X msg 613 333 56;
#X msg 663 333 57;
#X msg 713 333 58;
#X msg 763 333 59;
#X msg 228 207 \$1;
#X msg 278 207 \$2;
#X msg 328 207 \$3;
#X msg 378 207 \$4;
#X msg 428 207 \$5;
#X msg 478 207 \$6;
#X msg 528 207 \$7;
#X msg 578 207 \$8;
#X msg 628 207 \$9;
#X msg 678 207 \$10;
#X msg 728 207 \$11;
#X msg 778 207 \$12;
#X floatatom 31 59 5 0 0 0 - - -, f 5;
#X obj 478 144 122 115 120 100 99 118 103 98 104 110 106 109;
#X obj 813 259 ==;
#X floatatom 813 281 5 0 0 0 - - -, f 5;
#X obj 863 259 ==;
#X obj 813 304 moses 1;
#X floatatom 863 281 5 0 0 0 - - -, f 5;
#X obj 863 304 moses 1;
#X obj 913 259 ==;
#X floatatom 913 281 5 0 0 0 - - -, f 5;
#X obj 963 259 ==;
#X obj 913 304 moses 1;
#X floatatom 963 281 5 0 0 0 - - -, f 5;
#X obj 963 304 moses 1;
#X obj 1013 259 ==;
#X floatatom 1013 281 5 0 0 0 - - -, f 5;
#X obj 1063 259 ==;
#X obj 1013 304 moses 1;
#X floatatom 1063 281 5 0 0 0 - - -, f 5;
#X obj 1063 304 moses 1;
#X obj 1113 259 ==;
#X floatatom 1113 281 5 0 0 0 - - -, f 5;
#X obj 1163 259 ==;
#X obj 1113 304 moses 1;
#X floatatom 1163 281 5 0 0 0 - - -, f 5;
#X obj 1163 304 moses 1;
#X obj 1213 259 ==;
#X floatatom 1213 281 5 0 0 0 - - -, f 5;
#X obj 1263 259 ==;
#X obj 1213 304 moses 1;
#X floatatom 1263 281 5 0 0 0 - - -, f 5;
#X obj 1263 304 moses 1;
#X obj 1313 259 ==;
#X floatatom 1313 281 5 0 0 0 - - -, f 5;
#X obj 1363 259 ==;
#X obj 1313 304 moses 1;
#X floatatom 1363 281 5 0 0 0 - - -, f 5;
#X obj 1363 304 moses 1;
#X msg 828 207 \$1;
#X msg 878 207 \$2;
#X msg 928 207 \$3;
#X msg 978 207 \$4;
#X msg 1028 207 \$5;
#X msg 1078 207 \$6;
#X msg 1128 207 \$7;
#X msg 1178 207 \$8;
#X msg 1228 207 \$9;
#X msg 1278 207 \$10;
#X msg 1328 207 \$11;
#X msg 1378 207 \$12;
#X obj 1207 144 113 50 119 51 101 114 53 116 54 121 55 117 105 57 111
48 112;
#X obj 1413 259 ==;
#X floatatom 1413 281 5 0 0 0 - - -, f 5;
#X obj 1413 304 moses 1;
#X obj 1463 259 ==;
#X floatatom 1463 281 5 0 0 0 - - -, f 5;
#X obj 1513 259 ==;
#X obj 1463 304 moses 1;
#X floatatom 1513 281 5 0 0 0 - - -, f 5;
#X obj 1513 304 moses 1;
#X obj 1563 259 ==;
#X floatatom 1563 281 5 0 0 0 - - -, f 5;
#X obj 1613 259 ==;
#X obj 1563 304 moses 1;
#X floatatom 1613 281 5 0 0 0 - - -, f 5;
#X obj 1613 304 moses 1;
#X msg 813 333 60;
#X msg 863 333 61;
#X msg 913 333 62;
#X msg 963 333 63;
#X msg 1013 333 64;
#X msg 1064 333 65;
#X msg 1113 333 66;
#X msg 1163 333 67;
#X msg 1213 333 68;
#X msg 1263 333 69;
#X msg 1313 333 70;
#X msg 1363 333 71;
#X msg 1413 333 72;
#X msg 1463 333 73;
#X msg 1513 333 74;
#X msg 1563 333 75;
#X msg 1613 333 76;
#X obj 132 612 noteout, f 8;
#X msg 1428 207 \$13;
#X msg 1478 207 \$14;
#X msg 1528 207 \$15;
#X msg 1578 207 \$16;
#X msg 1628 207 \$17;
#X obj 81 248 s key;
#X obj 213 233 r key;
#X obj 263 233 r key;
#X obj 313 233 r key;
#X obj 363 233 r key;
#X obj 413 233 r key;
#X obj 463 233 r key;
#X obj 513 233 r key;
#X obj 563 233 r key;
#X obj 613 233 r key;
#X obj 663 233 r key;
#X obj 713 233 r key;
#X obj 763 233 r key;
#X obj 813 233 r key;
#X obj 863 233 r key;
#X obj 913 233 r key;
#X obj 963 233 r key;
#X obj 1013 233 r key;
#X obj 1063 233 r key;
#X obj 1113 233 r key;
#X obj 1163 233 r key;
#X obj 1213 233 r key;
#X obj 1263 233 r key;
#X obj 1313 233 r key;
#X obj 1363 233 r key;
#X obj 1413 233 r key;
#X obj 1463 233 r key;
#X obj 1513 233 r key;
#X obj 1563 233 r key;
#X obj 1613 233 r key;
#X obj 15 34 notein 1;
#X obj 135 91 keyup;
#X floatatom 244 572 5 0 0 0 - - -, f 5;
#X msg 275 543 0;
#X obj 81 91 key;
#X obj 132 512 r note;
#X obj 205 588 f;
#X obj 132 553 t f b;
#X obj 143 113 s up;
#X obj 92 115 s down;
#X obj 275 520 r up;
#X obj 244 495 r down;
#X obj 81 179 spigot;
#X obj 245 86 + 1;
#X obj 305 53 bng 15 250 50 0 empty empty empty 17 7 0 10 #fcfcfc #000000
#000000;
#X floatatom 114 147 5 0 0 0 - - -, f 5;
#X obj 199 113 % 2;
#X obj 199 87 f 1;
#X obj 85 282 43 45;
#X obj 70 366 ==;
#X floatatom 70 388 5 0 0 0 - - -, f 5;
#X obj 120 366 ==;
#X obj 70 411 moses 1;
#X floatatom 120 388 5 0 0 0 - - -, f 5;
#X obj 120 411 moses 1;
#X msg 85 314 \$1;
#X msg 135 314 \$2;
#X obj 70 340 r key;
#X obj 120 340 r key;
#X msg 12 219 0;
#X obj 12 490 f 0;
#X obj 12 425 t b f;
#X floatatom 40 544 5 0 0 0 - - -, f 5;
#X msg 70 442 1;
#X msg 120 442 -1;
#X floatatom 498 595 5 0 0 0 - - -, f 5;
#X obj 498 562 f 0;
#X obj 538 562 + 0;
#X obj 498 517 t b f;
#X msg 582 447 0;
#X obj 582 481 t b f f;
#X obj 425 562 spigot 0;
#X obj 396 463 r up;
#X obj 365 438 r down;
#X msg 396 490 0;
#X msg 365 490 1;
#X obj 365 519 t b f;
#X floatatom 366 560 5 0 0 0 - - -, f 5;
#X obj 425 515 bng 15 250 50 0 empty empty empty 17 7 0 10 #fcfcfc
#000000 #000000;
#X obj 70 478 s octset;
#X obj 498 462 r octset;
#X obj 605 548 * 12;
#X floatatom 661 572 5 0 0 0 - - -, f 5;
#X obj 661 595 s oct;
#X obj 213 410 + 0, f 10;
#X obj 813 410 + 0, f 10;
#X obj 813 434 s note;
#X obj 213 434 s note;
#X obj 302 406 r oct;
#X obj 894 409 r oct;
#X floatatom 723 589 6 0 0 0 - - -, f 6;
#X text 722 572 OCTAVE;
#X obj 252 519 bng 15 250 50 0 empty empty empty 17 7 0 10 #fcfcfc
#000000 #000000;
#X floatatom 801 589 6 0 0 0 - - -, f 6;
#X text 795 572 VELOCITY;
#X obj 719 506 cnv 15 70 18 empty empty MIDI\ KB 7 7 0 14 #000000 #808080
0;
#X obj 723 608 bng 15 250 50 0 empty empty empty 17 7 0 10 #808080
#000000 #000000;
#X text 739 607 reset;
#X obj 239 541 f 64;
#X msg 774 636 64;
#X obj 801 608 bng 15 250 50 0 empty empty empty 17 7 0 10 #808080
#000000 #000000;
#X text 817 607 reset;
#X floatatom 879 589 6 0 0 0 - - -, f 6;
#X obj 879 608 bng 15 250 50 0 empty empty empty 17 7 0 10 #808080
#000000 #000000;
#X text 895 607 reset;
#X text 875 572 CHANNEL;
#X msg 856 635 1;
#X obj 797 39 loadbang;
#X obj 999 599 ctlout 64;
#X msg 989 533 1;
#X msg 1028 537 0;
#X obj 1094 406 r octset;
#X obj 599 421 s octset;
#X obj 1094 488 until;
#X msg 1094 462 128;
#X obj 1094 572 t f b b;
#X floatatom 1158 601 5 0 0 0 - - -, f 5;
#X obj 917 648 s changechan;
#X obj 1372 405 r changechan;
#X msg 1126 600 0;
#X obj 1094 625 noteout;
#X obj 1094 513 f 0;
#X obj 1128 512 + 1;
#X obj 1274 436 r up;
#X obj 1243 415 r down;
#X msg 1274 460 0;
#X msg 1243 460 1;
#X msg 1175 504 0;
#X obj 1107 543 sel 127;
#X obj 1111 435 spigot 0;
#X obj 1006 423 r changechan;
#X obj 359 23 r onoff;
#X obj 944 508 tgl 15 0 empty empty empty 17 7 0 10 #808080 #000000
#000000 0 1;
#X obj 941 463 s onoff;
#X text 901 508 ON/OFF;
#X msg 565 63 0;
#X connect 1 0 152 0;
#X connect 2 0 3 0;
#X connect 3 0 8 0;
#X connect 4 0 236 0;
#X connect 6 0 9 0;
#X connect 7 0 236 0;
#X connect 8 1 4 0;
#X connect 9 0 10 0;
#X connect 10 1 7 0;
#X connect 11 0 12 0;
#X connect 12 0 14 0;
#X connect 13 0 15 0;
#X connect 14 1 41 0;
#X connect 15 0 16 0;
#X connect 16 1 42 0;
#X connect 17 0 18 0;
#X connect 18 0 20 0;
#X connect 19 0 21 0;
#X connect 20 1 43 0;
#X connect 21 0 22 0;
#X connect 22 1 44 0;
#X connect 23 0 24 0;
#X connect 24 0 26 0;
#X connect 25 0 27 0;
#X connect 26 1 45 0;
#X connect 27 0 28 0;
#X connect 28 1 46 0;
#X connect 29 0 30 0;
#X connect 30 0 32 0;
#X connect 31 0 33 0;
#X connect 32 1 47 0;
#X connect 33 0 34 0;
#X connect 34 1 48 0;
#X connect 35 0 36 0;
#X connect 36 0 38 0;
#X connect 37 0 39 0;
#X connect 38 1 49 0;
#X connect 39 0 40 0;
#X connect 40 1 50 0;
#X connect 41 0 236 0;
#X connect 42 0 236 0;
#X connect 43 0 236 0;
#X connect 44 0 236 0;
#X connect 45 0 236 0;
#X connect 46 0 236 0;
#X connect 47 0 236 0;
#X connect 48 0 236 0;
#X connect 49 0 236 0;
#X connect 50 0 236 0;
#X connect 51 0 2 1;
#X connect 52 0 6 1;
#X connect 53 0 11 1;
#X connect 54 0 13 1;
#X connect 55 0 17 1;
#X connect 56 0 19 1;
#X connect 57 0 23 1;
#X connect 58 0 25 1;
#X connect 59 0 29 1;
#X connect 60 0 31 1;
#X connect 61 0 35 1;
#X connect 62 0 37 1;
#X connect 64 0 51 0;
#X connect 64 0 52 0;
#X connect 64 0 53 0;
#X connect 64 0 54 0;
#X connect 64 0 55 0;
#X connect 64 0 56 0;
#X connect 64 0 57 0;
#X connect 64 0 58 0;
#X connect 64 0 59 0;
#X connect 64 0 60 0;
#X connect 64 0 61 0;
#X connect 64 0 62 0;
#X connect 65 0 66 0;
#X connect 66 0 68 0;
#X connect 67 0 69 0;
#X connect 68 1 129 0;
#X connect 69 0 70 0;
#X connect 70 1 130 0;
#X connect 71 0 72 0;
#X connect 72 0 74 0;
#X connect 73 0 75 0;
#X connect 74 1 131 0;
#X connect 75 0 76 0;
#X connect 76 1 132 0;
#X connect 77 0 78 0;
#X connect 78 0 80 0;
#X connect 79 0 81 0;
#X connect 80 1 133 0;
#X connect 81 0 82 0;
#X connect 82 1 134 0;
#X connect 83 0 84 0;
#X connect 84 0 86 0;
#X connect 85 0 87 0;
#X connect 86 1 135 0;
#X connect 87 0 88 0;
#X connect 88 1 136 0;
#X connect 89 0 90 0;
#X connect 90 0 92 0;
#X connect 91 0 93 0;
#X connect 92 1 137 0;
#X connect 93 0 94 0;
#X connect 94 1 138 0;
#X connect 95 0 96 0;
#X connect 96 0 98 0;
#X connect 97 0 99 0;
#X connect 98 1 139 0;
#X connect 99 0 100 0;
#X connect 100 1 140 0;
#X connect 101 0 65 1;
#X connect 102 0 67 1;
#X connect 103 0 71 1;
#X connect 104 0 73 1;
#X connect 105 0 77 1;
#X connect 106 0 79 1;
#X connect 107 0 83 1;
#X connect 108 0 85 1;
#X connect 109 0 89 1;
#X connect 110 0 91 1;
#X connect 111 0 95 1;
#X connect 112 0 97 1;
#X connect 113 0 101 0;
#X connect 113 0 102 0;
#X connect 113 0 103 0;
#X connect 113 0 104 0;
#X connect 113 0 105 0;
#X connect 113 0 106 0;
#X connect 113 0 107 0;
#X connect 113 0 108 0;
#X connect 113 0 109 0;
#X connect 113 0 110 0;
#X connect 113 0 111 0;
#X connect 113 0 112 0;
#X connect 113 0 147 0;
#X connect 113 0 148 0;
#X connect 113 0 149 0;
#X connect 113 0 150 0;
#X connect 113 0 151 0;
#X connect 114 0 115 0;
#X connect 115 0 116 0;
#X connect 116 1 141 0;
#X connect 117 0 118 0;
#X connect 118 0 120 0;
#X connect 119 0 121 0;
#X connect 120 1 142 0;
#X connect 121 0 122 0;
#X connect 122 1 143 0;
#X connect 123 0 124 0;
#X connect 124 0 126 0;
#X connect 125 0 127 0;
#X connect 126 1 144 0;
#X connect 127 0 128 0;
#X connect 128 1 145 0;
#X connect 129 0 237 0;
#X connect 130 0 237 0;
#X connect 131 0 237 0;
#X connect 132 0 237 0;
#X connect 133 0 237 0;
#X connect 134 0 237 0;
#X connect 135 0 237 0;
#X connect 136 0 237 0;
#X connect 137 0 237 0;
#X connect 138 0 237 0;
#X connect 139 0 237 0;
#X connect 140 0 237 0;
#X connect 141 0 237 0;
#X connect 142 0 237 0;
#X connect 143 0 237 0;
#X connect 144 0 237 0;
#X connect 145 0 237 0;
#X connect 147 0 114 1;
#X connect 148 0 117 1;
#X connect 149 0 119 1;
#X connect 150 0 123 1;
#X connect 151 0 125 1;
#X connect 153 0 2 0;
#X connect 154 0 6 0;
#X connect 155 0 11 0;
#X connect 156 0 13 0;
#X connect 157 0 17 0;
#X connect 158 0 19 0;
#X connect 159 0 23 0;
#X connect 160 0 25 0;
#X connect 161 0 29 0;
#X connect 162 0 31 0;
#X connect 163 0 35 0;
#X connect 164 0 37 0;
#X connect 165 0 65 0;
#X connect 166 0 67 0;
#X connect 167 0 71 0;
#X connect 168 0 73 0;
#X connect 169 0 77 0;
#X connect 170 0 79 0;
#X connect 171 0 83 0;
#X connect 172 0 85 0;
#X connect 173 0 89 0;
#X connect 174 0 91 0;
#X connect 175 0 95 0;
#X connect 176 0 97 0;
#X connect 177 0 114 0;
#X connect 178 0 117 0;
#X connect 179 0 119 0;
#X connect 180 0 123 0;
#X connect 181 0 125 0;
#X connect 182 0 5 0;
#X connect 182 1 63 0;
#X connect 183 0 190 0;
#X connect 183 0 194 0;
#X connect 184 0 188 1;
#X connect 185 0 184 0;
#X connect 186 0 191 0;
#X connect 186 0 194 0;
#X connect 187 0 189 0;
#X connect 188 0 146 1;
#X connect 189 0 146 0;
#X connect 189 1 188 0;
#X connect 192 0 185 0;
#X connect 193 0 244 0;
#X connect 194 0 1 0;
#X connect 195 0 199 1;
#X connect 196 0 64 0;
#X connect 196 0 113 0;
#X connect 196 0 199 0;
#X connect 196 0 200 0;
#X connect 197 0 194 1;
#X connect 198 0 197 0;
#X connect 199 0 195 0;
#X connect 199 0 198 0;
#X connect 200 0 208 0;
#X connect 200 0 207 0;
#X connect 201 0 202 0;
#X connect 202 0 204 0;
#X connect 203 0 205 0;
#X connect 204 1 215 0;
#X connect 205 0 206 0;
#X connect 206 1 216 0;
#X connect 207 0 201 1;
#X connect 208 0 203 1;
#X connect 209 0 201 0;
#X connect 210 0 203 0;
#X connect 211 0 213 0;
#X connect 212 0 214 0;
#X connect 213 0 212 0;
#X connect 213 1 212 1;
#X connect 215 0 231 0;
#X connect 216 0 231 0;
#X connect 217 0 233 0;
#X connect 217 0 242 0;
#X connect 218 0 219 0;
#X connect 218 0 217 0;
#X connect 219 0 218 1;
#X connect 220 0 218 0;
#X connect 220 1 219 1;
#X connect 221 0 222 0;
#X connect 221 0 264 0;
#X connect 222 0 220 0;
#X connect 222 1 218 1;
#X connect 222 2 219 1;
#X connect 223 0 220 0;
#X connect 224 0 226 0;
#X connect 225 0 227 0;
#X connect 226 0 228 0;
#X connect 227 0 228 0;
#X connect 228 0 223 0;
#X connect 228 1 229 0;
#X connect 228 1 223 1;
#X connect 230 0 223 0;
#X connect 232 0 223 0;
#X connect 232 0 230 0;
#X connect 233 0 234 0;
#X connect 234 0 235 0;
#X connect 236 0 239 0;
#X connect 237 0 238 0;
#X connect 240 0 236 1;
#X connect 241 0 237 1;
#X connect 244 0 250 0;
#X connect 245 0 250 1;
#X connect 248 0 221 0;
#X connect 250 0 184 0;
#X connect 251 0 245 0;
#X connect 252 0 251 0;
#X connect 254 0 146 2;
#X connect 254 0 260 2;
#X connect 254 0 268 0;
#X connect 254 0 269 0;
#X connect 255 0 258 0;
#X connect 258 0 254 0;
#X connect 259 0 248 0;
#X connect 259 0 252 0;
#X connect 259 0 255 0;
#X connect 259 0 287 0;
#X connect 261 0 260 0;
#X connect 262 0 260 0;
#X connect 263 0 281 0;
#X connect 265 0 273 0;
#X connect 266 0 265 0;
#X connect 267 0 272 0;
#X connect 267 1 271 0;
#X connect 267 2 268 0;
#X connect 268 0 272 2;
#X connect 271 0 272 1;
#X connect 273 0 267 0;
#X connect 273 0 280 0;
#X connect 274 0 273 1;
#X connect 275 0 277 0;
#X connect 276 0 278 0;
#X connect 277 0 281 1;
#X connect 278 0 281 1;
#X connect 279 0 273 1;
#X connect 280 0 279 0;
#X connect 280 1 274 0;
#X connect 281 0 266 0;
#X connect 282 0 266 0;
#X connect 283 0 196 0;
#X connect 284 0 285 0;
#X connect 287 0 197 0;
#X coords 0 -1 1 1 256 128 1 713 499;
